<svg width="20" height="20" viewBox="0 0 20 20" fill="none" xmlns="http://www.w3.org/2000/svg">
<path d="M2.29163 14.1667H12.7083C13.0535 14.1667 13.3333 14.4465 13.3333 14.7917C13.3333 15.1081 13.0981 15.3696 12.7931 15.411L12.7083 15.4167H2.29163C1.94645 15.4167 1.66663 15.1368 1.66663 14.7917C1.66663 14.4752 1.90175 14.2137 2.20682 14.1723L2.29163 14.1667ZM2.29163 10.8333H17.7083C18.0535 10.8333 18.3333 11.1132 18.3333 11.4583C18.3333 11.7747 18.0981 12.0362 17.7931 12.0777L17.7083 12.0833H2.29163C1.94645 12.0833 1.66663 11.8035 1.66663 11.4583C1.66663 11.1419 1.90175 10.8804 2.20682 10.839L2.29163 10.8333ZM2.29163 7.49999H17.7083C18.0535 7.49999 18.3333 7.77981 18.3333 8.12499C18.3333 8.44141 18.0981 8.70291 17.7931 8.74432L17.7083 8.74999H2.29163C1.94645 8.74999 1.66663 8.47016 1.66663 8.12499C1.66663 7.80857 1.90175 7.54708 2.20682 7.5057L2.29163 7.49999ZM2.29163 4.16666H17.7083C18.0535 4.16666 18.3333 4.44648 18.3333 4.79166C18.3333 5.10807 18.0981 5.36957 17.7931 5.41095L17.7083 5.41666H2.29163C1.94645 5.41666 1.66663 5.13683 1.66663 4.79166C1.66663 4.47524 1.90175 4.21375 2.20682 4.17236L2.29163 4.16666Z" fill="#052729"/>
</svg>
