<svg width="25" height="24" viewBox="0 0 25 24" fill="none" xmlns="http://www.w3.org/2000/svg">
<path d="M11.2992 2.53318C12.1372 1.82618 13.3628 1.82618 14.2008 2.53318L20.9508 8.22772C21.4576 8.65523 21.75 9.28447 21.75 9.94747V19.7504C21.75 20.7169 20.9665 21.5004 20 21.5004H17C16.0335 21.5004 15.25 20.7169 15.25 19.7504V14.7504C15.25 14.3362 14.9142 14.0004 14.5 14.0004H11C10.5858 14.0004 10.25 14.3362 10.25 14.7504V19.7504C10.25 20.7169 9.4665 21.5004 8.5 21.5004H5.5C4.5335 21.5004 3.75 20.7169 3.75 19.7504V9.94747C3.75 9.28447 4.04241 8.65523 4.54916 8.22772L11.2992 2.53318Z" fill="#A6A6A6"/>
</svg>
