<svg width="10" height="11" viewBox="0 0 10 11" fill="none" xmlns="http://www.w3.org/2000/svg">
<path d="M7.60388 3.41659C7.60388 3.70423 7.37067 3.93742 7.08304 3.93742C6.79538 3.93742 6.56221 3.70423 6.56221 3.41659C6.56221 3.12894 6.79538 2.89575 7.08304 2.89575C7.37067 2.89575 7.60388 3.12894 7.60388 3.41659Z" fill="#212121"/>
<path d="M6.458 1.35408C4.95209 1.35408 3.72885 2.57733 3.72885 4.08325C3.72885 4.24458 3.74975 4.40007 3.77487 4.54326C3.78229 4.58553 3.76873 4.62226 3.74603 4.64496L1.14778 7.24321C0.9329 7.45808 0.81218 7.74954 0.81218 8.05341V8.95825C0.81218 9.36096 1.13864 9.68741 1.54135 9.68741H2.58301C2.98572 9.68741 3.31218 9.36096 3.31218 8.95825V8.43741H4.04135C4.329 8.43741 4.56217 8.20425 4.56217 7.91658V7.18741H5.29134C5.57255 7.18741 5.80171 6.96458 5.81184 6.68583C6.0188 6.73908 6.23705 6.77075 6.458 6.77075C7.96392 6.77075 9.18717 5.5475 9.18717 4.04158C9.18717 2.52861 7.9568 1.35408 6.458 1.35408ZM4.35384 4.08325C4.35384 2.92251 5.29725 1.97908 6.458 1.97908C7.62588 1.97908 8.56217 2.88789 8.56217 4.04158C8.56217 5.20233 7.61875 6.14575 6.458 6.14575C6.17496 6.14575 5.88359 6.07446 5.6228 5.96266C5.52621 5.92129 5.41534 5.93121 5.32767 5.98904C5.23996 6.04687 5.18717 6.14487 5.18717 6.24991V6.56241H4.458C4.17038 6.56241 3.93718 6.79558 3.93718 7.08325V7.81241H3.20801C2.92036 7.81241 2.68718 8.04558 2.68718 8.33325V8.95825C2.68718 9.01579 2.64054 9.06241 2.58301 9.06241H1.54135C1.48382 9.06241 1.43718 9.01579 1.43718 8.95825V8.05341C1.43718 7.91529 1.49205 7.78283 1.58973 7.68512L4.18796 5.08691C4.3623 4.91258 4.43121 4.66741 4.39046 4.43525C4.36809 4.30777 4.35384 4.19258 4.35384 4.08325Z" fill="#212121"/>
</svg>
