<svg width="25" height="24" viewBox="0 0 25 24" fill="none" xmlns="http://www.w3.org/2000/svg">
<rect width="24" height="24" transform="translate(0.5)" fill="white"/>
<path d="M12.5 9.50389C14.3409 9.50389 15.8333 10.9963 15.8333 12.8372C15.8333 14.6782 14.3409 16.1705 12.5 16.1705C10.659 16.1705 9.16666 14.6782 9.16666 12.8372C9.16666 10.9963 10.659 9.50389 12.5 9.50389ZM12.5 6.58337C16.3446 6.58337 19.6634 9.20838 20.5842 12.887C20.6681 13.2219 20.4646 13.5613 20.1297 13.6451C19.7949 13.7289 19.4555 13.5255 19.3717 13.1905C18.5892 10.065 15.7678 7.83337 12.5 7.83337C9.23076 7.83337 6.4084 10.0669 5.62736 13.1944C5.54373 13.5292 5.20445 13.7329 4.86956 13.6493C4.53466 13.5656 4.33098 13.2264 4.41461 12.8915C5.33386 9.21064 8.65372 6.58337 12.5 6.58337Z" fill="#212121"/>
</svg>
