<svg width="10" height="11" viewBox="0 0 10 11" fill="none" xmlns="http://www.w3.org/2000/svg">
<path d="M7.75 2.5C8.44035 2.5 9 3.05964 9 3.75V7.75C9 8.44035 8.44035 9 7.75 9H2.25C1.55964 9 1 8.44035 1 7.75V3.75C1 3.05964 1.55964 2.5 2.25 2.5H7.75ZM8.5 4.4805L5.12675 6.4655C5.06155 6.50385 4.9833 6.51025 4.91375 6.48465L4.87324 6.4655L1.5 4.4815V7.75C1.5 8.1642 1.83579 8.5 2.25 8.5H7.75C8.1642 8.5 8.5 8.1642 8.5 7.75V4.4805ZM7.75 3H2.25C1.83579 3 1.5 3.33579 1.5 3.75V3.901L5 5.95995L8.5 3.9005V3.75C8.5 3.33579 8.1642 3 7.75 3Z" fill="#212121"/>
</svg>
