<svg width="25" height="24" viewBox="0 0 25 24" fill="none" xmlns="http://www.w3.org/2000/svg">
<path d="M4.34975 3.84968C4.12785 4.07157 4.10769 4.41879 4.28923 4.66347L4.34975 4.73357L7.71189 8.09571C6.11023 9.22027 4.91316 10.8999 4.41575 12.887C4.33194 13.2218 4.53544 13.5612 4.87028 13.645C5.20513 13.7288 5.54452 13.5254 5.62835 13.1905C6.06957 11.4279 7.15929 9.94952 8.61182 8.99539L10.1198 10.5035C9.53025 11.1048 9.16669 11.9285 9.16669 12.8371C9.16669 14.6781 10.6591 16.1705 12.5 16.1705C13.4087 16.1705 14.2324 15.8069 14.8337 15.2173L19.7664 20.1502C20.0105 20.3943 20.4062 20.3943 20.6503 20.1502C20.8722 19.9284 20.8924 19.5811 20.7108 19.3365L20.6503 19.2664L15.5557 14.1712L15.5567 14.17L9.76566 8.38147L9.76669 8.37996L8.82229 7.43787L5.23363 3.84968C4.98955 3.60561 4.59382 3.60561 4.34975 3.84968ZM12.5 6.58329C11.6664 6.58329 10.8576 6.70668 10.0926 6.93746L11.1234 7.96762C11.5699 7.87939 12.0304 7.83329 12.5 7.83329C15.7693 7.83329 18.5916 10.0668 19.3726 13.1943C19.4563 13.5291 19.7955 13.7328 20.1304 13.6492C20.4654 13.5655 20.669 13.2263 20.5854 12.8914C19.6662 9.21056 16.3463 6.58329 12.5 6.58329ZM12.6623 9.50769L15.83 12.675C15.7452 10.9609 14.3727 9.58966 12.6623 9.50769Z" fill="#212121"/>
</svg>
