<svg width="18" height="18" viewBox="0 0 18 18" fill="none" xmlns="http://www.w3.org/2000/svg">
<path d="M6.71191 6.44985C6.71191 3.7392 8.91375 1.53735 11.6244 1.53735C14.3222 1.53735 16.5369 3.6515 16.5369 6.37485C16.5369 9.0855 14.335 11.2874 11.6244 11.2874C11.2267 11.2874 10.8338 11.2304 10.4613 11.1345C10.4431 11.6363 10.0306 12.0374 9.5244 12.0374H8.2119V13.3499C8.2119 13.8677 7.7922 14.2874 7.27441 14.2874H5.96191V15.2249C5.96191 15.9497 5.37429 16.5374 4.64941 16.5374H2.77441C2.04954 16.5374 1.46191 15.9497 1.46191 15.2249V13.5962C1.46191 13.0492 1.67921 12.5246 2.066 12.1378L6.74284 7.46094C6.7837 7.42008 6.80812 7.35397 6.79477 7.27787C6.74954 7.02013 6.71191 6.74026 6.71191 6.44985ZM13.687 5.24987C13.687 4.7321 13.2672 4.31237 12.7495 4.31237C12.2317 4.31237 11.812 4.7321 11.812 5.24987C11.812 5.76763 12.2317 6.18737 12.7495 6.18737C13.2672 6.18737 13.687 5.76763 13.687 5.24987Z" fill="#74583F"/>
</svg>
