<svg width="17" height="16" viewBox="0 0 17 16" fill="none" xmlns="http://www.w3.org/2000/svg">
<path d="M13.7667 4.40002C13.7667 5.50459 12.8712 6.40002 11.7667 6.40002C11.1278 6.40002 10.5589 6.1005 10.1928 5.63422L6.49874 7.48126C6.54306 7.6467 6.56668 7.8206 6.56668 8.00002C6.56668 8.17946 6.54305 8.35338 6.49872 8.5189L10.1928 10.3659C10.5589 9.89954 11.1278 9.60002 11.7667 9.60002C12.8712 9.60002 13.7667 10.4955 13.7667 11.6C13.7667 12.7046 12.8712 13.6 11.7667 13.6C10.6621 13.6 9.76668 12.7046 9.76668 11.6C9.76668 11.4206 9.79028 11.2467 9.8346 11.0812L6.14056 9.23418C5.77441 9.7005 5.20552 10 4.56668 10C3.46211 10 2.56668 9.10458 2.56668 8.00002C2.56668 6.89546 3.46211 6.00002 4.56668 6.00002C5.20555 6.00002 5.77447 6.29958 6.14062 6.7659L9.8346 4.91887C9.79028 4.75341 9.76668 4.57947 9.76668 4.40002C9.76668 3.29546 10.6621 2.40002 11.7667 2.40002C12.8712 2.40002 13.7667 3.29546 13.7667 4.40002Z" fill="#212121"/>
</svg>
