<svg width="12" height="12" viewBox="0 0 12 12" fill="none" xmlns="http://www.w3.org/2000/svg">
<path d="M4.47461 4.2999C4.47461 2.4928 5.9425 1.0249 7.7496 1.0249C9.54815 1.0249 11.0246 2.43433 11.0246 4.2499C11.0246 6.057 9.5567 7.5249 7.7496 7.5249C7.48445 7.5249 7.22255 7.4869 6.9742 7.423C6.96205 7.7575 6.68705 8.0249 6.3496 8.0249H5.4746V8.8999C5.4746 9.2451 5.1948 9.5249 4.84961 9.5249H3.97461V10.1499C3.97461 10.6332 3.58286 11.0249 3.09961 11.0249H1.84961C1.36636 11.0249 0.974609 10.6332 0.974609 10.1499V9.0641C0.974609 8.69945 1.11947 8.3497 1.37733 8.09185L4.49523 4.97396C4.52246 4.94672 4.53874 4.90265 4.52984 4.85191C4.49969 4.68009 4.47461 4.49351 4.47461 4.2999ZM9.12465 3.49991C9.12465 3.15473 8.8448 2.87491 8.49965 2.87491C8.15445 2.87491 7.87465 3.15473 7.87465 3.49991C7.87465 3.84509 8.15445 4.12491 8.49965 4.12491C8.8448 4.12491 9.12465 3.84509 9.12465 3.49991Z" fill="#212121"/>
</svg>
