<svg width="17" height="16" viewBox="0 0 17 16" fill="none" xmlns="http://www.w3.org/2000/svg">
<path d="M7.52519 2.0684C7.85532 1.39949 8.80919 1.39948 9.13932 2.0684L10.7113 5.25355L14.2263 5.76431C14.9645 5.87158 15.2593 6.77878 14.7251 7.29945L12.1816 9.77871L12.7821 13.2795C12.9081 14.0148 12.1365 14.5754 11.4762 14.2283L8.33226 12.5754L5.18834 14.2283C4.52808 14.5754 3.75638 14.0148 3.88248 13.2795L4.48292 9.77871L1.93943 7.29945C1.40526 6.77878 1.70002 5.87158 2.43822 5.76431L5.95324 5.25355L7.52519 2.0684ZM8.33226 2.69267L6.82671 5.74326C6.69562 6.00889 6.4422 6.193 6.14906 6.2356L2.78254 6.72478L5.21858 9.09931C5.4307 9.30611 5.52749 9.60398 5.47742 9.89598L4.90234 13.2489L7.91346 11.6658C8.17566 11.528 8.48886 11.528 8.75106 11.6658L11.7622 13.2489L11.1871 9.89598C11.1371 9.60398 11.2339 9.30611 11.4459 9.09931L13.882 6.72478L10.5155 6.2356C10.2223 6.193 9.96892 6.00889 9.83786 5.74326L8.33226 2.69267Z" fill="#212121"/>
</svg>
