<svg width="20" height="20" viewBox="0 0 20 20" fill="none" xmlns="http://www.w3.org/2000/svg">
<path d="M8.82588 2.09336C9.57888 1.78811 10.421 1.78811 11.174 2.09336L17.4229 4.62667C17.9732 4.84978 18.3333 5.38432 18.3333 5.97817V14.0221C18.3333 14.6159 17.9732 15.1505 17.4229 15.3736L11.174 17.9069C10.421 18.2122 9.57888 18.2122 8.82588 17.9069L2.57706 15.3736C2.02672 15.1505 1.66663 14.6159 1.66663 14.0221V5.97817C1.66663 5.38432 2.02672 4.84978 2.57706 4.62667L8.82588 2.09336ZM10.7044 3.25179C10.2526 3.06864 9.74729 3.06864 9.29554 3.25179L7.70077 3.8983L13.9731 6.33756L16.1975 5.47871L10.7044 3.25179ZM12.2425 7.00575L6.01223 4.58285L3.8252 5.46949L10.001 7.87121L12.2425 7.00575ZM2.91663 14.0221C2.91663 14.1069 2.96807 14.1833 3.04668 14.2152L9.29554 16.7485C9.32188 16.7592 9.34854 16.7693 9.37521 16.7787V8.96901L2.91663 6.45735V14.0221ZM10.7044 16.7485L16.9532 14.2152C17.0319 14.1833 17.0833 14.1069 17.0833 14.0221V6.47662L10.6252 8.97017V16.7785C10.6518 16.7691 10.6782 16.7591 10.7044 16.7485Z" fill="#052729"/>
</svg>
